<svg width="122" height="118" viewBox="0 0 122 118" fill="none" xmlns="http://www.w3.org/2000/svg">
<path fill-rule="evenodd" clip-rule="evenodd" d="M21.6344 82.3962C21.6344 82.3962 21.6343 82.3963 21.7652 82.4697C21.8366 82.6016 21.8367 82.6016 21.8367 82.6016L21.844 82.5976L21.8665 82.5855L21.955 82.5382C22.0329 82.4967 22.1478 82.436 22.2956 82.3588C22.5911 82.2044 23.0179 81.9845 23.543 81.7225C24.5932 81.1985 26.0355 80.5067 27.6044 79.8349C29.1738 79.1628 30.8669 78.5121 32.4194 78.0693C33.9776 77.6248 35.3731 77.3961 36.3568 77.5499L36.4032 77.2535C35.3506 77.089 33.901 77.3347 32.3371 77.7808C30.7675 78.2285 29.0615 78.8846 27.4863 79.5591C25.9105 80.2339 24.4627 80.9284 23.409 81.4541C22.8821 81.717 22.4536 81.9378 22.1567 82.0929C22.1499 82.0964 22.1431 82.0999 22.1365 82.1034C22.1815 82.0199 22.2322 81.9253 22.288 81.8204C22.5323 81.3614 22.8735 80.7059 23.2619 79.9196C24.0385 78.3475 25.0046 76.2499 25.7602 74.1525C26.5138 72.0603 27.0654 69.9487 26.9968 68.356C26.9625 67.5586 26.7721 66.871 26.3531 66.3832C25.9294 65.8901 25.2921 65.6243 24.4169 65.6328L24.4198 65.9328C25.2294 65.9249 25.7729 66.1683 26.1255 66.5787C26.4828 66.9946 26.6642 67.6049 26.6971 68.3689C26.7629 69.8989 26.2299 71.9631 25.4779 74.0508C24.7277 76.1333 23.767 78.2197 22.993 79.7867C22.6061 80.5699 22.2663 81.2227 22.0232 81.6795C21.9016 81.9079 21.8043 82.0873 21.7374 82.2096C21.704 82.2707 21.6782 82.3175 21.6607 82.3489L21.6409 82.3845L21.6344 82.3962ZM21.7652 82.4697L21.8367 82.6016L21.381 82.8481L21.6344 82.3962L21.7652 82.4697Z" fill="white"/>
<path fill-rule="evenodd" clip-rule="evenodd" d="M60.0278 46.1122C47.1443 53.0561 35.6464 62.8131 28.6955 74.0643L28.9507 74.2219C35.867 63.0267 47.3198 53.3023 60.1701 46.3763C73.0205 39.4504 87.2546 35.3303 99.7244 35.3303V35.0303C87.1942 35.0303 72.9113 39.1684 60.0278 46.1122Z" fill="white"/>
</svg>
